# xmcd
#
# Track frame offsets:
#	150
#	15333
#	32913
#	46848
#	64358
#	82705
#	99355
#	114405
#	130195
#	147973
#	163328
#	180580
#
# Disc length: 2625 seconds
#
# Revision: 4
# Processed by: cddbd v1.5.2PL0 Copyright (c) Steve Scherf et al.
# Submitted via: VUPlayer 2.49
#
DISCID=940a3f0c
DTITLE=Andy Borg - Ich brauch ein bißchen Glück
DYEAR=1994
DGENRE=Deutsche Titel
TTITLE0=Ich brauch ein bisschen Glück
TTITLE1=Heute bist Du endlich aufgewacht
TTITLE2=Lieber jetzt und ohne Ende
TTITLE3=und Petra Frey - Ich kann nicht mehr leben ohne Dich
TTITLE4=Das Mädchen von Agadir
TTITLE5=Wenn da nicht die Sehnsucht wär
TTITLE6=und Petra Frey - Zusammen geh'n
TTITLE7=Warum nicht wir beide
TTITLE8=Verzeih =Dein Herz verlor die Träume=
TTITLE9=Für dich allein
TTITLE10=Wenn das Glück Dich wieder mal vergisst
TTITLE11=Machs gut Cherie
EXTD=
EXTT0=
EXTT1=
EXTT2=
EXTT3=
EXTT4=
EXTT5=
EXTT6=
EXTT7=
EXTT8=
EXTT9=
EXTT10=
EXTT11=
PLAYORDER=
